<svg class="diagram-root" style="background: #f5f6f6" xmlns="http://www.w3.org/2000/svg" xmlns:xlink="http://www.w3.org/1999/xlink"><style>.diagram-root { font-family: "Helvetica Neue", sans-serif; font-size: 12px; } .t { overflow: visible; } .t-bg { y: 40; fill: #fff;   } .th { fill: #005aa0;   } .tht { fill: #fff; font-size: 14px;  } .tf { fill: #323c46; overflow: visible; } .tf.pk { fill: #005aa0; font-weight: bold; } .tf.fk { font-weight: bold; } .ty { fill: #adb1b5; font-weight: normal; text-anchor: end; } .r { fill: transparent; stroke: #c3c3c3; stroke-width: 1; } .l { stroke: 1; } .i { fill: #c2c7ce; stroke: #c2c7ce; } .i.ix { fill: #afb3b6; stroke: #000; } .fa { fill: transparent; overflow: visible; } .fa .bg.hover { fill: #f7f7f7; } .c { cy: 12; r: 4; stroke: #d2d2dc; fill: #d2d2dc; } .hr { fill: transparent; stroke: #323c46; stroke-opacity: 0.035; stroke-width: 13; } .dc { stroke: #fa5a3c; fill: #fa5a3c; } .x { stroke: white; stroke-width: 1; } .hl .th { fill: #1b9bff; } .hl .tht {  } .fhl .bg { fill: #e7f4ff; } .fhls .bg {  } .r.hl { stroke: #1b9bff; } .dim { opacity: 0.25; }</style><g class="drawing-wrapper" transform="translate(2, 40) scale(1,1)"><g class="rs"><path d="M 136.05 87 m -1, 0 a 1,1 0 1,0 2,0 a 1,1 0 1,0 -2,0 M 136.05 87 m -0.5, 0 a 0.5,0.5 0 1,0 1,0 a 0.5,0.5 0 1,0 -1,0  M136.05 87 L136.05 87 148.05 87 M 136.05 93 m -1, 0 a 1,1 0 1,0 2,0 a 1,1 0 1,0 -2,0 M 136.05 93 m -0.5, 0 a 0.5,0.5 0 1,0 1,0 a 0.5,0.5 0 1,0 -1,0  M136.05 93 L136.05 93 143.05 87 136.05 81 M 136.05 81 m -1, 0 a 1,1 0 1,0 2,0 a 1,1 0 1,0 -2,0 M 136.05 81 m -0.5, 0 a 0.5,0.5 0 1,0 1,0 a 0.5,0.5 0 1,0 -1,0  M148.05 87 Q 164.29 87, 180.53 67 T 213 47 M 225 47 m -1, 0 a 1,1 0 1,0 2,0 a 1,1 0 1,0 -2,0 M 225 47 m -0.5, 0 a 0.5,0.5 0 1,0 1,0 a 0.5,0.5 0 1,0 -1,0  M225 47 L225 47 213 47 M219 53 L219 53 219 41" id="h1950675103" class="r"></path><path d="M 490 163 m -1, 0 a 1,1 0 1,0 2,0 a 1,1 0 1,0 -2,0 M 490 163 m -0.5, 0 a 0.5,0.5 0 1,0 1,0 a 0.5,0.5 0 1,0 -1,0  M490 163 L490 163 502 163 M 490 169 m -1, 0 a 1,1 0 1,0 2,0 a 1,1 0 1,0 -2,0 M 490 169 m -0.5, 0 a 0.5,0.5 0 1,0 1,0 a 0.5,0.5 0 1,0 -1,0  M490 169 L490 169 497 163 490 157 M 490 157 m -1, 0 a 1,1 0 1,0 2,0 a 1,1 0 1,0 -2,0 M 490 157 m -0.5, 0 a 0.5,0.5 0 1,0 1,0 a 0.5,0.5 0 1,0 -1,0  M502 163 C 552 163, 641.226 72, 353.29 72 M 341.29 72 m -1, 0 a 1,1 0 1,0 2,0 a 1,1 0 1,0 -2,0 M 341.29 72 m -0.5, 0 a 0.5,0.5 0 1,0 1,0 a 0.5,0.5 0 1,0 -1,0  M341.29 72 L341.29 72 353.29 72 M347.29 78 L347.29 78 347.29 66" id="h4229978713" class="r"></path><path d="M 341.29 47 m -1, 0 a 1,1 0 1,0 2,0 a 1,1 0 1,0 -2,0 M 341.29 47 m -0.5, 0 a 0.5,0.5 0 1,0 1,0 a 0.5,0.5 0 1,0 -1,0  M341.29 47 L341.29 47 353.29 47 M 341.29 53 m -1, 0 a 1,1 0 1,0 2,0 a 1,1 0 1,0 -2,0 M 341.29 53 m -0.5, 0 a 0.5,0.5 0 1,0 1,0 a 0.5,0.5 0 1,0 -1,0  M341.29 53 L341.29 53 348.29 47 341.29 41 M 341.29 41 m -1, 0 a 1,1 0 1,0 2,0 a 1,1 0 1,0 -2,0 M 341.29 41 m -0.5, 0 a 0.5,0.5 0 1,0 1,0 a 0.5,0.5 0 1,0 -1,0  M353.29 47 C 641.226 47, 552 188, 502 188 M 490 188 m -1, 0 a 1,1 0 1,0 2,0 a 1,1 0 1,0 -2,0 M 490 188 m -0.5, 0 a 0.5,0.5 0 1,0 1,0 a 0.5,0.5 0 1,0 -1,0  M490 188 L490 188 502 188 M496 194 L496 194 496 182" id="h3335357949" class="r"></path><path d="M 225 72 m -1, 0 a 1,1 0 1,0 2,0 a 1,1 0 1,0 -2,0 M 225 72 m -0.5, 0 a 0.5,0.5 0 1,0 1,0 a 0.5,0.5 0 1,0 -1,0  M225 72 L225 72 213 72 M 225 78 m -1, 0 a 1,1 0 1,0 2,0 a 1,1 0 1,0 -2,0 M 225 78 m -0.5, 0 a 0.5,0.5 0 1,0 1,0 a 0.5,0.5 0 1,0 -1,0  M225 78 L225 78 218 72 225 66 M 225 66 m -1, 0 a 1,1 0 1,0 2,0 a 1,1 0 1,0 -2,0 M 225 66 m -0.5, 0 a 0.5,0.5 0 1,0 1,0 a 0.5,0.5 0 1,0 -1,0  M213 72 C 153.4 72, 157 383, 207 383 M 219 383 m -1, 0 a 1,1 0 1,0 2,0 a 1,1 0 1,0 -2,0 M 219 383 m -0.5, 0 a 0.5,0.5 0 1,0 1,0 a 0.5,0.5 0 1,0 -1,0  M219 383 L219 383 207 383 M213 389 L213 389 213 377" id="h451625757" class="r"></path><path d="M 432 327 m -1, 0 a 1,1 0 1,0 2,0 a 1,1 0 1,0 -2,0 M 432 327 m -0.5, 0 a 0.5,0.5 0 1,0 1,0 a 0.5,0.5 0 1,0 -1,0  M432 327 L432 327 420 327 M 432 333 m -1, 0 a 1,1 0 1,0 2,0 a 1,1 0 1,0 -2,0 M 432 333 m -0.5, 0 a 0.5,0.5 0 1,0 1,0 a 0.5,0.5 0 1,0 -1,0  M432 333 L432 333 425 327 432 321 M 432 321 m -1, 0 a 1,1 0 1,0 2,0 a 1,1 0 1,0 -2,0 M 432 321 m -0.5, 0 a 0.5,0.5 0 1,0 1,0 a 0.5,0.5 0 1,0 -1,0  M420 327 Q 395.25 327, 370.5 355 T 321 383 M 309 383 m -1, 0 a 1,1 0 1,0 2,0 a 1,1 0 1,0 -2,0 M 309 383 m -0.5, 0 a 0.5,0.5 0 1,0 1,0 a 0.5,0.5 0 1,0 -1,0  M309 383 L309 383 321 383 M315 389 L315 389 315 377" id="h2543177687" class="r"></path><path d="M 542.71 352 m -1, 0 a 1,1 0 1,0 2,0 a 1,1 0 1,0 -2,0 M 542.71 352 m -0.5, 0 a 0.5,0.5 0 1,0 1,0 a 0.5,0.5 0 1,0 -1,0  M542.71 352 L542.71 352 554.71 352 M 542.71 358 m -1, 0 a 1,1 0 1,0 2,0 a 1,1 0 1,0 -2,0 M 542.71 358 m -0.5, 0 a 0.5,0.5 0 1,0 1,0 a 0.5,0.5 0 1,0 -1,0  M542.71 358 L542.71 358 549.71 352 542.71 346 M 542.71 346 m -1, 0 a 1,1 0 1,0 2,0 a 1,1 0 1,0 -2,0 M 542.71 346 m -0.5, 0 a 0.5,0.5 0 1,0 1,0 a 0.5,0.5 0 1,0 -1,0  M554.71 352 Q 583.41 352, 612.11 400.75 T 669.5 449.5 M 681.5 449.5 m -1, 0 a 1,1 0 1,0 2,0 a 1,1 0 1,0 -2,0 M 681.5 449.5 m -0.5, 0 a 0.5,0.5 0 1,0 1,0 a 0.5,0.5 0 1,0 -1,0  M681.5 449.5 L681.5 449.5 669.5 449.5 M675.5 455.5 L675.5 455.5 675.5 443.5" id="h1537058300" class="r"></path></g><g class="hrs"></g><g class="ts"><svg width="106.05" height="100" x="30" y="30" id="h475896179" class="t"><rect height="40" width="106.05" class="th"></rect><text x="13" y="25" class="tht">departments</text><rect height="60" width="106.05" class="t-bg" y="40"></rect><text x="13" y="61" class="tf fk">dept_no</text><text x="13" y="86" class="tf">dept_name</text></svg><svg width="116.29" height="100" x="225" y="-10" id="h1676682957" class="t"><rect height="40" width="116.29" class="th"></rect><text x="13" y="25" class="tht">dept_manager</text><rect height="60" width="116.29" class="t-bg" y="40"></rect><text x="13" y="61" class="tf fk">dept_no</text><text x="13" y="86" class="tf fk">emp_no</text></svg><svg width="110.71" height="225" x="432" y="270" id="h1639608377" class="t"><rect height="40" width="110.71" class="th"></rect><text x="13" y="25" class="tht">employees</text><rect height="185" width="110.71" class="t-bg" y="40"></rect><text x="13" y="61" class="tf fk">emp_no</text><text x="13" y="86" class="tf fk">emp_title_id</text><text x="13" y="111" class="tf">birth_date</text><text x="13" y="136" class="tf">first_name</text><text x="13" y="161" class="tf">last_name</text><text x="13" y="186" class="tf">sex</text><text x="13" y="211" class="tf">hire_date</text></svg><svg width="90" height="100" x="219" y="326" id="h2472833127" class="t"><rect height="40" width="90" class="th"></rect><text x="13" y="25" class="tht">salaries</text><rect height="60" width="90" class="t-bg" y="40"></rect><text x="13" y="61" class="tf fk">emp_no</text><text x="13" y="86" class="tf">salary</text></svg><svg width="90" height="100" x="681.5" y="392.5" id="h311790747" class="t"><rect height="40" width="90" class="th"></rect><text x="13" y="25" class="tht">titles</text><rect height="60" width="90" class="t-bg" y="40"></rect><text x="13" y="61" class="tf fk">title_id</text><text x="13" y="86" class="tf">title</text></svg><svg width="90" height="100" x="400" y="106" id="h1090417462" class="t"><rect height="40" width="90" class="th"></rect><text x="13" y="25" class="tht">dept_emp</text><rect height="60" width="90" class="t-bg" y="40"></rect><text x="13" y="61" class="tf fk">emp_no</text><text x="13" y="86" class="tf fk">dept_no</text></svg></g></g><text class="qdbd-link" x="10" y="20">www.quickdatabasediagrams.com</text></svg>